<?xml version="1.0" encoding="UTF-8"?>
<svg width="400" height="400" viewBox="0 0 400 400" xmlns="http://www.w3.org/2000/svg">
  <style>
    .primary { fill: #4299e1; }
    .secondary { fill: #2b6cb0; }
    .accent { fill: #ffffff; }
  </style>
  
  <!-- Simplified person figure -->
  <rect x="180" y="100" width="40" height="60" class="accent" rx="20" /> <!-- head -->
  <rect x="160" y="160" width="80" height="120" class="accent" rx="10" /> <!-- body -->
  
  <!-- Paper/list illustration -->
  <path d="M100,120 L300,120 C310,120 320,130 320,140 L320,340 C320,350 310,360 300,360 L100,360 C90,360 80,350 80,340 L80,140 C80,130 90,120 100,120" class="primary" />
  <rect x="100" y="160" width="180" height="10" class="accent" rx="5" />
  <rect x="100" y="190" width="180" height="10" class="accent" rx="5" />
  <rect x="100" y="220" width="180" height="10" class="accent" rx="5" />
  <rect x="100" y="250" width="120" height="10" class="accent" rx="5" />
</svg>
